<mxfile host="app.diagrams.net" modified="2024-07-18T09:35:52.320Z" agent="Mozilla/5.0 (Windows NT 10.0; Win64; x64) AppleWebKit/537.36 (KHTML, like Gecko) Chrome/126.0.0.0 Safari/537.36" etag="KaGNhXme7vELCsDI15dL" version="24.7.1" type="github">
  <diagram name="第 1 页" id="6AT4iqGB5Zy_AjSFlbKP">
    <mxGraphModel dx="1221" dy="652" grid="1" gridSize="10" guides="1" tooltips="1" connect="1" arrows="1" fold="1" page="1" pageScale="1" pageWidth="827" pageHeight="1169" math="0" shadow="0">
      <root>
        <mxCell id="0" />
        <mxCell id="1" parent="0" />
        <mxCell id="9gxyJF_GyS4p70Cxcd28-6" value="" style="edgeStyle=orthogonalEdgeStyle;rounded=0;orthogonalLoop=1;jettySize=auto;html=1;" edge="1" parent="1" source="9gxyJF_GyS4p70Cxcd28-3" target="9gxyJF_GyS4p70Cxcd28-5">
          <mxGeometry relative="1" as="geometry" />
        </mxCell>
        <mxCell id="9gxyJF_GyS4p70Cxcd28-3" value="Send Torque" style="rounded=1;whiteSpace=wrap;html=1;arcSize=14;strokeWidth=2;" vertex="1" parent="1">
          <mxGeometry x="380" y="560" width="120" height="60" as="geometry" />
        </mxCell>
        <mxCell id="9gxyJF_GyS4p70Cxcd28-8" style="edgeStyle=orthogonalEdgeStyle;rounded=0;orthogonalLoop=1;jettySize=auto;html=1;exitX=0;exitY=0.5;exitDx=0;exitDy=0;entryX=0;entryY=0.5;entryDx=0;entryDy=0;" edge="1" parent="1" source="9gxyJF_GyS4p70Cxcd28-5" target="9gxyJF_GyS4p70Cxcd28-3">
          <mxGeometry relative="1" as="geometry" />
        </mxCell>
        <mxCell id="9gxyJF_GyS4p70Cxcd28-5" value="Check Direction" style="rounded=1;whiteSpace=wrap;html=1;arcSize=14;strokeWidth=2;" vertex="1" parent="1">
          <mxGeometry x="380" y="700" width="120" height="60" as="geometry" />
        </mxCell>
        <mxCell id="9gxyJF_GyS4p70Cxcd28-9" value="MCU" style="rounded=0;whiteSpace=wrap;html=1;" vertex="1" parent="1">
          <mxGeometry x="380" y="450" width="120" height="60" as="geometry" />
        </mxCell>
        <mxCell id="9gxyJF_GyS4p70Cxcd28-14" value="CAN RX" style="rounded=0;whiteSpace=wrap;html=1;" vertex="1" parent="1">
          <mxGeometry x="670" y="450" width="120" height="60" as="geometry" />
        </mxCell>
        <mxCell id="9gxyJF_GyS4p70Cxcd28-18" value="" style="edgeStyle=orthogonalEdgeStyle;rounded=0;orthogonalLoop=1;jettySize=auto;html=1;" edge="1" parent="1" source="9gxyJF_GyS4p70Cxcd28-16" target="9gxyJF_GyS4p70Cxcd28-17">
          <mxGeometry relative="1" as="geometry" />
        </mxCell>
        <mxCell id="9gxyJF_GyS4p70Cxcd28-16" value="Event" style="strokeWidth=2;html=1;shape=mxgraph.flowchart.start_2;whiteSpace=wrap;" vertex="1" parent="1">
          <mxGeometry x="680" y="535" width="100" height="100" as="geometry" />
        </mxCell>
        <mxCell id="9gxyJF_GyS4p70Cxcd28-20" value="" style="edgeStyle=orthogonalEdgeStyle;rounded=0;orthogonalLoop=1;jettySize=auto;html=1;" edge="1" parent="1" source="9gxyJF_GyS4p70Cxcd28-17" target="9gxyJF_GyS4p70Cxcd28-19">
          <mxGeometry relative="1" as="geometry" />
        </mxCell>
        <mxCell id="9gxyJF_GyS4p70Cxcd28-17" value="Recieve" style="whiteSpace=wrap;html=1;strokeWidth=2;" vertex="1" parent="1">
          <mxGeometry x="670" y="690" width="120" height="60" as="geometry" />
        </mxCell>
        <mxCell id="9gxyJF_GyS4p70Cxcd28-19" value="ID handler" style="whiteSpace=wrap;html=1;strokeWidth=2;" vertex="1" parent="1">
          <mxGeometry x="670" y="790" width="120" height="60" as="geometry" />
        </mxCell>
        <mxCell id="9gxyJF_GyS4p70Cxcd28-23" value="" style="edgeStyle=orthogonalEdgeStyle;rounded=0;orthogonalLoop=1;jettySize=auto;html=1;" edge="1" parent="1" source="9gxyJF_GyS4p70Cxcd28-24" target="9gxyJF_GyS4p70Cxcd28-26">
          <mxGeometry relative="1" as="geometry" />
        </mxCell>
        <mxCell id="9gxyJF_GyS4p70Cxcd28-24" value="ADC sig. process" style="rounded=1;whiteSpace=wrap;html=1;arcSize=14;strokeWidth=2;" vertex="1" parent="1">
          <mxGeometry x="80" y="560" width="120" height="60" as="geometry" />
        </mxCell>
        <mxCell id="9gxyJF_GyS4p70Cxcd28-25" style="edgeStyle=orthogonalEdgeStyle;rounded=0;orthogonalLoop=1;jettySize=auto;html=1;exitX=0;exitY=0.5;exitDx=0;exitDy=0;entryX=0;entryY=0.5;entryDx=0;entryDy=0;" edge="1" parent="1" source="9gxyJF_GyS4p70Cxcd28-26" target="9gxyJF_GyS4p70Cxcd28-24">
          <mxGeometry relative="1" as="geometry" />
        </mxCell>
        <mxCell id="9gxyJF_GyS4p70Cxcd28-26" value="Update Torque" style="rounded=1;whiteSpace=wrap;html=1;arcSize=14;strokeWidth=2;" vertex="1" parent="1">
          <mxGeometry x="80" y="700" width="120" height="60" as="geometry" />
        </mxCell>
        <mxCell id="9gxyJF_GyS4p70Cxcd28-29" style="edgeStyle=orthogonalEdgeStyle;rounded=0;orthogonalLoop=1;jettySize=auto;html=1;exitX=1;exitY=0.5;exitDx=0;exitDy=0;entryX=0;entryY=0.5;entryDx=0;entryDy=0;" edge="1" parent="1" source="9gxyJF_GyS4p70Cxcd28-27" target="9gxyJF_GyS4p70Cxcd28-28">
          <mxGeometry relative="1" as="geometry" />
        </mxCell>
        <mxCell id="9gxyJF_GyS4p70Cxcd28-27" value="APPE" style="rounded=0;whiteSpace=wrap;html=1;" vertex="1" parent="1">
          <mxGeometry x="80" y="450" width="120" height="60" as="geometry" />
        </mxCell>
        <mxCell id="9gxyJF_GyS4p70Cxcd28-30" style="edgeStyle=orthogonalEdgeStyle;rounded=0;orthogonalLoop=1;jettySize=auto;html=1;exitX=1;exitY=0.5;exitDx=0;exitDy=0;entryX=0;entryY=0.5;entryDx=0;entryDy=0;" edge="1" parent="1" source="9gxyJF_GyS4p70Cxcd28-28" target="9gxyJF_GyS4p70Cxcd28-9">
          <mxGeometry relative="1" as="geometry" />
        </mxCell>
        <mxCell id="9gxyJF_GyS4p70Cxcd28-28" value="Torque" style="shape=parallelogram;html=1;strokeWidth=2;perimeter=parallelogramPerimeter;whiteSpace=wrap;rounded=1;arcSize=12;size=0.23;" vertex="1" parent="1">
          <mxGeometry x="250" y="450" width="100" height="60" as="geometry" />
        </mxCell>
        <mxCell id="9gxyJF_GyS4p70Cxcd28-34" style="edgeStyle=orthogonalEdgeStyle;rounded=0;orthogonalLoop=1;jettySize=auto;html=1;exitX=0;exitY=0.5;exitDx=0;exitDy=0;entryX=1;entryY=0.5;entryDx=0;entryDy=0;startArrow=classic;startFill=1;" edge="1" parent="1" source="9gxyJF_GyS4p70Cxcd28-31" target="9gxyJF_GyS4p70Cxcd28-9">
          <mxGeometry relative="1" as="geometry" />
        </mxCell>
        <mxCell id="9gxyJF_GyS4p70Cxcd28-35" style="edgeStyle=orthogonalEdgeStyle;rounded=0;orthogonalLoop=1;jettySize=auto;html=1;exitX=1;exitY=0.5;exitDx=0;exitDy=0;entryX=0;entryY=0.5;entryDx=0;entryDy=0;startArrow=classic;startFill=1;" edge="1" parent="1" source="9gxyJF_GyS4p70Cxcd28-31" target="9gxyJF_GyS4p70Cxcd28-14">
          <mxGeometry relative="1" as="geometry" />
        </mxCell>
        <mxCell id="9gxyJF_GyS4p70Cxcd28-31" value="Status" style="shape=parallelogram;html=1;strokeWidth=2;perimeter=parallelogramPerimeter;whiteSpace=wrap;rounded=1;arcSize=12;size=0.23;" vertex="1" parent="1">
          <mxGeometry x="540" y="450" width="100" height="60" as="geometry" />
        </mxCell>
      </root>
    </mxGraphModel>
  </diagram>
</mxfile>
